# xmcd
#
# Track frame offsets: 
#        150
#        21033
#        45321
#        62572
#        80390
#        103643
#        124822
#        145490
#        169216
#        188825
#
# Disc length: 2776 seconds
#
# Revision: 0
# Processed by: cddbd v1.5.2PL0 Copyright (c) Steve Scherf et al.
# Submitted via: ExactAudioCopyFreeDBPlugin 1.0
#
DISCID=800ad60a
DTITLE=蘇永康 - 蘇永康 男人不該讓女人流淚
DYEAR=2017
DGENRE=Pop
TTITLE0=01. 男人不該讓女人流淚
TTITLE1=02. 愛已離開
TTITLE2=03. 愛情若是不用言語
TTITLE3=04. 重回傷心地
TTITLE4=05. 迷惑
TTITLE5=06. 太接近夜
TTITLE6=07. 盼望
TTITLE7=08. 隨心所欲
TTITLE8=09. 就此分手
TTITLE9=10. 男人心
EXTD=
EXTT0=
EXTT1=
EXTT2=
EXTT3=
EXTT4=
EXTT5=
EXTT6=
EXTT7=
EXTT8=
EXTT9=
PLAYORDER=
